<?xml version="1.0" encoding="utf-8"?>
<!-- Generator: Adobe Illustrator 25.0.0, SVG Export Plug-In . SVG Version: 6.00 Build 0)  -->
<svg version="1.1" id="Layer_1" xmlns="http://www.w3.org/2000/svg" xmlns:xlink="http://www.w3.org/1999/xlink" x="0px" y="0px"
	 viewBox="0 0 492.8 292.7" style="enable-background:new 0 0 492.8 292.7;" xml:space="preserve">
<style type="text/css">
	.st0{fill:#1E4042;}
	.st1{enable-background:new    ;}
	.st2{fill:#F2A25D;}
	.st3{clip-path:url(#SVGID_2_);}
</style>
<g id="Layer_2_1_">
	<g id="Layer_1-2">
		<path class="st0" d="M23,225.9h-5.5v-24.6h-2.8l-0.3-4.4c1.3,0,2.8-0.2,3.9-0.2c3.6,0,4.6,0.8,4.6,4.1v25.1H23z M43.4,205v13.4H38
			v-13.7c0-1.1,0-2.3-0.2-3.4c-1,0-2.3-0.2-3.8-0.2c-1.5,0-3.9,0.2-6.2,0.3l-0.3-4.6c2.1-0.2,4.2-0.3,6.5-0.3
			C41.9,196.6,43.4,197.7,43.4,205z M50.7,218.3c-0.3-1.6-0.5-3.1-0.7-4.7l-2-16.6l5.2-0.3l1.8,17.3c0.7,0,1.1,0,1.8,0
			c5.2,0,7-2.4,7-8.6c0-1.3-0.2-2.8-0.5-4.1c-0.3-0.2-0.8-0.2-1.1-0.2c-1.5,0-2.8,0.3-4.2,0.7l-0.5-4.7c1.8-0.3,3.6-0.5,5.4-0.5
			c5.2,0,6.5,2.6,6.5,8.2c0,9.5-4.2,13.9-13.5,13.9C54.2,218.6,52.4,218.4,50.7,218.3L50.7,218.3z M98.5,196.9
			c0,17.8-4.1,21.9-14.7,21.9c-2.8,0-5.4-0.2-8.2-0.7c-0.3-2.1-0.5-3.3-0.7-5.1l-1.8-16.1h5.4l1.1,10.4h0.2c2-0.7,2.9-2,3.4-5.1
			l0.7-5.4h4.9c-0.3,2.3-0.7,4.4-1,6.5c-0.8,5.1-3.9,6.5-7.8,6.9l0.3,3.6c1.1,0.2,2.3,0.3,3.4,0.2c6.9,0,9.1-1.5,9.1-17.3
			L98.5,196.9z M127.4,200.5l-7.3,17.8h-5.7l7.7-17.1V201h-10.6l-0.5-4.4l-0.3-6.2l4.9-0.5l0.3,6.5h11.3L127.4,200.5z M131.8,211.6
			c0.5-3.9,1.3-6.5,3.4-8.6v-0.2l-4.4-5.5v-0.5l5.5-0.3l7.8,10.6h0.2c0.8-2.1,1.3-4.4,1.3-6.7c0-1.3,0-2.8,0-3.8h5.2
			c0,1.1-0.2,2.8-0.3,4.2c-0.2,3.4-1.3,6.9-3.4,9.5l5.1,7.5v0.5h-5.7l-8.5-11.9l0,0c-0.8,2.1-1.1,4.4-1.1,6.7
			c-0.2,2.3,0,2.4-0.3,5.2h-5.2C131.5,216.5,131.6,213.9,131.8,211.6L131.8,211.6z M157.6,201.3h-2.8l-0.3-4.4
			c1.1,0,2.8-0.2,3.8-0.2c3.8,0,4.9,0.7,4.9,4.1v9.5h-5.4L157.6,201.3z M183,205v13.4h-5.4v-13.7c0-1.1,0-2.3-0.2-3.4
			c-1,0-2.3-0.2-3.8-0.2c-1.5,0-3.9,0.2-6.2,0.3l-0.3-4.6c2.1-0.2,4.2-0.3,6.5-0.3C181.4,196.6,183,197.7,183,205L183,205z
			 M190,206.7c0-2,0.5-3.9,1.8-5.4c-1.3-0.2-2.6-0.2-3.9-0.5l-0.3-4.1c2.3,0,4.2,0.2,6,0.2h4.7l0.3,3.8c-1.3,0.5-2.6,1.1-3.8,2
			c0.2,5.2,0.7,10.6,1.5,15.8h-5.5C190.5,214.3,190,208.8,190,206.7L190,206.7z M221.7,196.9l-0.8,10.6c-0.5,6.7-4.2,9.1-9.3,10.6
			c-2.9,0.8-6,1.5-9.1,1.8v-4.7c1.5-0.2,3.3-0.5,5.1-1c-1.6-5.7-3.4-11.4-5.2-17.1l5.4-0.3c1.8,5.2,3.3,10.6,4.6,16.1
			c2.4-1,3.4-2.4,3.6-6l0.3-9.8L221.7,196.9z M237,201.3h-2.8l-0.5-4.4c1.1,0,2.8-0.2,3.8-0.2c3.8,0,4.9,0.7,4.9,4.1v9.5H237V201.3z
			 M247.9,211.6c0.5-3.9,1.3-6.5,3.4-8.6v-0.2l-4.4-5.5v-0.5l5.5-0.3l7.8,10.6h0.2c0.8-2.1,1.3-4.4,1.3-6.7c0-1.3,0-2.8,0-3.8h5.2
			c0,1.1-0.2,2.8-0.3,4.2c0,3.4-1.3,6.9-3.4,9.5l5.1,7.5v0.5h-5.7l-8.5-11.9l0,0c-0.8,2.1-1.1,4.4-1.1,6.7c-0.2,2.3,0,2.4-0.2,5.2
			h-5.2C247.4,216.5,247.6,213.9,247.9,211.6L247.9,211.6z M271.6,213.9h4.9v-12.6h-3.9l-0.2-4.4c1.1-0.2,2-0.2,3.6-0.2
			c5.4,0,6.2,0.7,6.2,6.9v14.8h-10.6V213.9z M305.5,214v4.4h-18.6v-4.6h10.3v-9.9c0-0.8,0-1.8-0.2-2.6c-1,0-2-0.2-3.3-0.2
			c-2,0-4.6,0.2-6.4,0.2l-0.3-4.4c2.4-0.2,4.9-0.3,6.9-0.3c6.9,0,8.6,1,8.6,7.5v9.6L305.5,214z"/>
		<g class="st1">
			<path class="st0" d="M19.2,267.8c0,4.9-3.4,7.7-10.3,7.7c-1,0-3.3,0-7.5-0.5v-24.8c3.1-0.3,5.9-0.5,8-0.5c6.2,0,9.1,2.3,9.1,6
				c0,2.4-1.1,4.6-3.8,5.7v0.2C17.4,262.6,19.2,264.7,19.2,267.8z M6.5,253.8v6.5h1.8c1.3,0,2.4,0,3.1-0.2c1.3-0.8,2-2.1,2-3.4
				c0-2.1-1.5-3.1-4.1-3.1C8.4,253.7,7.4,253.7,6.5,253.8z M13.8,268c0-2.6-1.3-3.9-4.2-3.9H6.3v7.3c1.1,0.2,1.6,0.2,2.8,0.2
				c1,0,2.1-0.2,3.1-0.3C13.5,270.4,13.8,269.3,13.8,268z"/>
			<path class="st0" d="M22.3,269.5c0-2.3,1.3-4.6,3.8-5.7c1.6-0.8,3.8-1.1,6-1.1c1,0,1.6,0,2.3,0.2V262c0-2.6-0.7-3.4-3.9-3.4
				c-2,0-4.6,0.3-6.9,1.1l0.3-4.1c2.3-0.8,4.9-1.3,7.3-1.3c5.7,0,8.2,2.1,8.2,7.5v13.5h-4.2l-0.3-2.3c-1.6,1.8-3.8,2.6-6.2,2.6
				C23.8,275.5,22.3,272.1,22.3,269.5z M34.2,269.8v-3.9c-0.8-0.2-1.6-0.2-2.8-0.2c-1.5,0-2.8,0.2-3.9,0.8c-0.5,0.8-0.7,1.5-0.7,2.1
				c0,1.8,1,2.8,2.9,2.8C31.3,271.4,32.7,271.1,34.2,269.8z"/>
			<path class="st0" d="M62.4,260.8v14.4h-5.1V262c0-2.3-1-3.3-3.3-3.3c-1.1,0-2.6,0.3-4.6,1.1V275h-5.1V255l4.7-0.7l0.2,2.4
				c2.4-1.6,4.6-2.4,7-2.4C60.3,254.5,62.4,256.4,62.4,260.8z"/>
			<path class="st0" d="M66.3,269.5c0-2.3,1.3-4.6,3.8-5.7c1.6-0.8,3.8-1.1,6-1.1c1,0,1.6,0,2.3,0.2V262c0-2.6-0.7-3.4-3.9-3.4
				c-2,0-4.6,0.3-6.9,1.1l0.3-4.1c2.3-0.8,4.9-1.3,7.3-1.3c5.7,0,8.2,2.1,8.2,7.5v13.5h-4.2l-0.3-2.3c-1.6,1.8-3.8,2.6-6.2,2.6
				C68,275.5,66.3,272.1,66.3,269.5z M78.4,269.8v-3.9c-0.8-0.2-1.6-0.2-2.8-0.2c-1.5,0-2.8,0.2-3.9,0.8c-0.5,0.8-0.7,1.5-0.7,2.1
				c0,1.8,1,2.8,2.9,2.8C75.3,271.4,76.9,271.1,78.4,269.8z"/>
			<path class="st0" d="M89.8,258.9l-2.9-0.2l0.2-3.9h7.8v20.4h-5.1V258.9z M89.3,247.3c1.5-0.3,3.4-0.3,5.4-0.2l-0.3,4.9h-4.6
				C89.6,250.4,89.5,248.9,89.3,247.3z"/>
			<path class="st0" d="M121.5,270.8h-9.3l-1.3,4.4h-5.2l8.5-25l5.9-0.2l8.3,25.1h-5.5L121.5,270.8z M120.5,267l-3.6-12.1h-0.2
				l-3.6,12.1H120.5z"/>
			<path class="st0" d="M129.8,271.6l9.5-12.9l0,0h-9.1l0.3-3.9h14.7l0.2,3.3l-9.3,12.9v0.2h9.6l-0.5,4.1h-15.5L129.8,271.6z"/>
			<path class="st0" d="M149,255.1l4.7-0.7l0.2,2.9c1.8-2.1,3.1-2.9,4.9-2.9c0.8,0,1.5,0.2,2.3,0.3l-0.3,4.6c-1-0.2-1.6-0.3-2.4-0.3
				c-1.5,0-2.9,0.3-4.4,1.5V275H149V255.1z"/>
			<path class="st0" d="M165.3,258.9l-2.9-0.2l0.2-3.9h7.8v20.4h-5.1V258.9z M165,247.3c1.5-0.3,3.4-0.3,5.4-0.2l-0.3,4.9h-4.6
				C165.2,250.4,165,248.9,165,247.3z"/>
			<path class="st0" d="M192.6,266.2h-12.9c0.3,4.1,2.4,5.4,5.9,5.4c1.8,0,3.8-0.2,6.2-0.8l-0.3,3.8c-2.3,0.8-4.7,1.1-6.5,1.1
				c-6.4,0-10.3-3.3-10.3-10.4c0-6.5,3.6-10.9,9.8-10.9c5.5,0,8.3,2.9,8.3,8.3C192.9,263.8,192.9,264.9,192.6,266.2z M181.1,259.2
				c-0.7,1-1.1,2.3-1.3,3.9h8.2c-0.2-3.3-1.3-4.7-3.8-4.7C183.4,258.2,182.1,258.4,181.1,259.2z"/>
			<path class="st0" d="M204.8,275c-0.8,0.2-2.3,0.3-3.4,0.3c-1.5,0-2.6-0.2-3.6-1c-0.8-0.8-1.1-2.3-1.1-4.4v-23.2l5.1-0.7v23
				c0,0.8,0,1.3,0,1.8l3.3,0.3L204.8,275z"/>
			<path class="st0" d="M215.6,274.2l0.5-4.4c2.8,1,5.7,1.5,7.5,1.5c1.3,0,2.4-0.3,3.1-0.8c0.3-0.5,0.7-1,0.7-1.6
				c0-4.2-11.6-4.6-11.6-12.1c0-4.6,3.9-7,9.9-7c1.8,0,3.8,0.3,5.9,0.8l-0.5,4.4c-2.3-0.7-4.4-1-6-1c-1.8,0-3.3,0.3-4.1,0.8
				c-0.3,0.5-0.5,0.8-0.5,1.3c0,3.9,11.7,4.4,11.7,11.7c0,3.8-2.8,7.7-9.6,7.7C220.3,275.7,217.7,275.2,215.6,274.2z"/>
			<path class="st0" d="M242.5,258.7v12.1c0.7,0.2,1.1,0.2,1.8,0.2c0.7,0,1.5,0,2.6-0.3v4.1c-1.3,0.5-2.4,0.7-3.8,0.7
				c-4.6,0-5.4-1.8-5.4-4.9v-11.7H235l0.2-3.8l2.8-0.2l0.7-4.6l4.1-0.5v5.2h4.6l-0.2,3.9L242.5,258.7z"/>
			<path class="st0" d="M250.8,255.1l4.7-0.7l0.2,2.9c1.8-2.1,3.1-2.9,4.9-2.9c0.8,0,1.5,0.2,2.3,0.3l-0.3,4.6
				c-1-0.2-1.6-0.3-2.4-0.3c-1.5,0-2.9,0.3-4.4,1.5V275h-5.1v-19.9H250.8z"/>
			<path class="st0" d="M282.6,266.2h-12.9c0.3,4.1,2.4,5.4,5.9,5.4c1.8,0,3.8-0.2,6.2-0.8l-0.3,3.8c-2.3,0.8-4.7,1.1-6.5,1.1
				c-6.4,0-10.3-3.3-10.3-10.4c0-6.5,3.6-10.9,9.8-10.9c5.5,0,8.3,2.9,8.3,8.3C282.9,263.8,282.9,264.9,282.6,266.2z M271.2,259.2
				c-0.7,1-1.1,2.3-1.3,3.9h8.2c-0.2-3.3-1.3-4.7-3.8-4.7C273.5,258.2,272.2,258.4,271.2,259.2z"/>
			<path class="st0" d="M304.9,260.8v14.4h-5.1V262c0-2.3-1-3.3-3.3-3.3c-1.1,0-2.6,0.3-4.6,1.1V275H287V255l4.7-0.7l0.2,2.4
				c2.4-1.6,4.6-2.4,7-2.4C303,254.5,304.9,256.4,304.9,260.8z"/>
		</g>
		<path class="st0" d="M344.4,226.4h-2.9v-27.1h-3.1l-0.2-2.4c1,0,1.6,0,2.6,0c2.8,0,3.6,0.3,3.6,3.1V226.4z M354.3,199.3h-3.1
			l-0.2-2.4c1,0,1.8,0,2.8,0c2.8,0,3.6,0.3,3.6,3.1v9.3h-3.1V199.3z M380.8,199.3l-2.9,0.2v18.9h-3.1v-9.8c0-3.1,0.2-6.2,0.5-9.1
			h-11.1l-0.2-2.4h16.6v2.3H380.8z M388.1,197.2h11.3v2.4h-11.3V197.2z M408.3,199.3h-3.1l-0.2-2.4c0.8,0,1.8,0,2.8,0
			c2.8,0,3.6,0.3,3.6,3.1v9.3h-3.1L408.3,199.3L408.3,199.3z M433.3,206.5c0,9.6-1.8,11.9-9.6,11.9h-5.1V216h4.6
			c6.5,0,7.2-1,7.2-9.5c0-2.3,0-4.6-0.3-6.9c-1.5-0.2-3.1-0.3-4.6-0.3c-2,0-4.6,0-6.9,0.3l-0.2-2.4c2.3-0.2,4.6-0.3,6.7-0.3
			C431.8,196.9,433.3,197.7,433.3,206.5z M454.5,203.3v15.2h-2.9v-15.3c0-1.5,0-2.3,0-3.4c-1.8-0.2-3.8-0.3-5.5-0.2
			c-2.1,0-4.1,0.2-6.2,0.3l-0.2-2.4c2.3-0.2,3.9-0.3,6.4-0.3C454.3,196.9,454.5,197.5,454.5,203.3L454.5,203.3z M465.1,199.3H462
			l-0.2-2.4c1,0,1.6,0,2.6,0c2.8,0,3.6,0.3,3.6,3.1v18.4h-2.9L465.1,199.3L465.1,199.3z M492.8,197.1l-0.8,10.4
			c-0.5,5.4-3.6,8.3-8.5,10.1c-2.6,0.8-5.2,1.6-8,2.1V217c2.1-0.3,4.1-0.8,6.2-1.5c-1.8-6.4-3.9-12.2-6-18.4l2.9-0.2
			c2,5.7,3.9,11.6,5.5,17.8c3.3-1.3,5.2-4.4,5.1-7.8l0.5-9.8L492.8,197.1z"/>
		<g class="st1">
			<path class="st0" d="M354.7,272.7l-0.3,2.4h-13.7v-25h2.9v22.5H354.7z"/>
			<path class="st0" d="M357.6,269.6c0-2.4,1.1-4.4,2.9-5.4c1.8-1.1,4.7-1.1,7-1.1c1,0,1.8,0,2.6,0.2v-0.7c0-3.9-0.8-5.5-4.7-5.5
				c-2.1,0-4.4,0.5-6.5,1.1l0.2-2.4c2-0.7,4.4-1.1,6.7-1.1c4.9,0,7.2,2.1,7.2,7.2v13.4h-2.6l-0.3-2.4c-1.8,1.8-3.9,2.8-6.5,2.8
				C359.4,275.5,357.6,272.4,357.6,269.6z M370.2,270.3v-5.1c-1,0-1.8-0.2-3.1-0.2c-2,0-4.1,0-5.9,1.1c-0.7,0.8-0.8,1.8-0.8,2.9
				c0,2.3,1.5,3.9,4.1,3.9C366.4,273.1,368.5,272.1,370.2,270.3z"/>
			<path class="st0" d="M389.7,259.7L389.7,259.7l-4.7,15.5h-3.1l-5.5-20.1h3.1l4.1,17.1l0,0l4.9-17.1h2.4l4.9,17.1h0.2l4.1-17.1
				h2.8l-5.2,20.1H394L389.7,259.7z"/>
			<path class="st0" d="M418.3,261.5h10.1l-0.2,2.3h-9.9V275h-3.1v-25h14l0.2,2.4h-11.3v9H418.3z"/>
			<path class="st0" d="M435.6,257.6l-3.3-0.2l0.2-2.1h5.9v20.1h-2.9v-17.8H435.6z M434.6,248.3c1-0.2,2.4-0.2,3.8-0.2l-0.3,3.6
				h-3.1C434.8,250.4,434.6,249.4,434.6,248.3z"/>
			<path class="st0" d="M445,255.1l2.8-0.3l0.2,2.8c2-2,3.8-2.9,5.4-2.9c0.7,0,1.3,0.2,2.1,0.5l-0.3,2.8c-0.7-0.2-1.3-0.3-2-0.3
				c-1.8,0-3.1,0.5-5.1,2.1v15.5h-2.9v-20.1H445z"/>
			<path class="st0" d="M487.8,260.8v14.4h-2.9v-14c0-2.9-1.3-4.1-3.9-4.1c-1.8,0-3.9,0.5-6.2,2c0,0.5,0.2,1,0.2,1.6V275h-2.9v-13.9
				c0-2.9-1.3-4.1-3.9-4.1c-1.8,0-3.9,0.5-6.2,2v16h-2.9V255l2.8-0.3v2.4c2.8-1.8,5.1-2.6,7.5-2.6c2.4,0,4.1,0.8,4.9,2.6
				c3.3-1.8,5.7-2.6,8-2.6C485.6,254.6,487.8,256.3,487.8,260.8z"/>
		</g>
		<rect x="319.4" y="169.7" class="st2" width="3.6" height="123.1"/>
		<g>
			<g>
				<defs>
					<rect id="SVGID_1_" x="73.9" y="-24" width="350.4" height="188.8"/>
				</defs>
				<clipPath id="SVGID_2_">
					<use xlink:href="#SVGID_1_"  style="overflow:visible;"/>
				</clipPath>
				<g class="st3">
					<path class="st0" d="M175.2,351.4c-2.6-3.2-6.1-5.6-10-6.9c-1.2-0.4-2.3-0.9-3.4-1.2c-1.1-0.3-2.2-0.7-3.3-1.1
						s-2.2-0.7-3.3-1.1s-2.3-0.8-3.5-1.3c-2.9-1-5.6-2.6-7.8-4.8c-2.1-2.2-3.1-5.1-3-8c0-2,0.3-3.9,1.1-5.7c3-6.7,12.5-6.2,12.5-6.2
						l5.6-0.1v-2.9h-4.9c-2.9,0-5.8,0.4-8.7,1.2c-2.6,0.7-5.1,2-7.3,3.6c-2.1,1.6-3.8,3.8-5,6.1c-1.3,2.7-2,5.8-1.9,8.8
						c0,2,0.3,3.9,1,5.7c0.7,1.8,1.6,3.4,2.8,4.9c1.1,1.5,2.5,2.8,4,3.9s3.1,1.9,4.8,2.6c1.4,0.6,2.7,1,3.7,1.4s2.1,0.7,3,1
						c0.9,0.3,2,0.7,3.2,1.1c1.2,0.4,2.5,0.9,4,1.4s2.9,1.2,4.3,1.9c1.3,0.7,2.4,1.5,3.4,2.5s1.8,2.2,2.3,3.5
						c0.6,1.5,0.9,3.1,0.8,4.6c0.2,3.9-1.4,7.7-4.3,10.4c-2.3,2-6.4,2.4-8.6,2.4v2.8h2.6c0.6,0,7.7-1.2,12.4-5
						c2.2-1.6,3.9-3.7,5.1-6.1C179.9,364.5,179.2,357.1,175.2,351.4"/>
					<path class="st0" d="M68.6,342.6c13.8-4.9,13.8-27.1-2.6-27.1H53.5v-2.9H73c11.8,0,15.7,9.8,15.7,15.1c0,13-13,17.8-16.4,17.8
						c-1.3,0-2.6,0-3.7,0L68.6,342.6z"/>
					<path class="st0" d="M68.6,345.5c18.8,0.9,18.6,34.4-2.1,33.5h-2l-13.8,0.2v2.9l4-0.2h22.5c11.7-0.1,15.4-11.8,15.2-20.7
						c-0.3-15.8-14.4-18.6-21.7-18.6h-2.1C68.6,342.6,68.6,345.5,68.6,345.5z"/>
					<polyline class="st2" points="123.3,347.8 107,347.7 107.2,347.8 98.5,347.7 98.5,350.6 123.3,350.6 					"/>
					<path class="st0" d="M146.7,377.5L146.7,377.5l-0.4-0.7l-34.6-60.7l-0.4-0.6c-0.8-1.2-2-2.1-3.5-2.5H91.6v2.9h4.8
						c1.1,0,2.2,0.6,2.8,1.5l0,0l1.4,2.3l19.3,33.8l0.8,1.5l1.5,2.5l0.2,0.5l12,20.8l0.3,0.6c1.1,1.7,2.9,2.7,4.9,2.7l13.3-0.2v-2.8
						H150C148.7,379.1,147.5,378.5,146.7,377.5"/>
					<polyline class="st2" points="111.7,379.1 99.4,379.1 99.5,379.1 92.9,379.1 92.9,382 111.7,382 					"/>
					<polyline class="st0" points="53.5,359.7 53.5,340.5 53.5,340.7 53.5,330.3 50.7,330.3 50.7,359.7 					"/>
					<path class="st0" d="M384.6,83.4c-5.1-6.4-12.3-11.4-21.4-14.8c-2.6-1-5.1-1.8-7.4-2.6c-2.4-0.8-4.7-1.6-7-2.3
						c-2.3-0.7-4.6-1.5-7-2.3s-4.9-1.8-7.6-2.8c-6.3-2.2-12.1-5.7-16.9-10.4c-4.3-4.3-6.5-10.1-6.5-17.3c-0.1-4.2,0.7-8.4,2.4-12.3
						C319.7,4.1,340,5.3,340,5.3l12-0.1v-6.4h-2.4l0,0h-8.2c-6.3,0-12.6,0.8-18.6,2.5c-5.7,1.6-11,4.2-15.6,7.8
						c-4.5,3.6-8.2,8.1-10.8,13.2c-2.7,5.3-4,11.6-4,18.9c0,4.2,0.7,8.4,2.2,12.3c1.5,3.8,3.4,7.4,5.9,10.6c2.4,3.2,5.3,6,8.6,8.3
						c3.1,2.3,6.6,4.2,10.2,5.6c3.1,1.2,5.8,2.2,8,3c2.2,0.8,4.4,1.5,6.5,2.2s4.4,1.5,6.8,2.3c2.4,0.8,5.3,1.8,8.6,3.1
						c3.1,1.2,6.2,2.5,9.2,4.1c2.7,1.4,5.2,3.2,7.4,5.4c2.1,2.1,3.8,4.7,5,7.4c1.3,3.2,1.9,6.6,1.8,10c0,9.3-3.1,16.8-9.4,22.3
						c-4.9,4.3-13.7,5.1-18.4,5.1v6h5.5c1.3,0.1,16.6-2.6,26.8-10.8c4.6-3.5,8.4-8,11-13.2c2.7-5.4,4.1-11.4,4-17.5
						C392.2,98,389.6,90,384.6,83.4"/>
					<path class="st0" d="M152.5,64.6c29.6-10.5,29.7-58.3-5.5-58.3h-26.8V0.1h30.4H162c25.4,0,33.8,21,33.8,32.5
						c0,27.9-28,38.2-35.2,38.2c-2.8,0-5.7,0-8,0L152.5,64.6z"/>
					<path class="st0" d="M152.5,70.8c40.3,2,39.9,74-4.6,72h-4.3l-29.7,0.4v6.2l8.6-0.4h31h17.3c25.4,0,33.2-25.2,32.8-44.3
						c-0.6-34-30.9-40-46.6-40h-4.6v6.1H152.5z"/>
					<polyline class="st2" points="270.2,75.6 235.2,75.6 235.6,75.6 216.8,75.6 216.8,81.8 270.2,81.8 					"/>
					<path class="st0" d="M320.5,139.5L320.5,139.5l-0.9-1.6L245.3,7.4L244.4,6c-1.7-2.7-4.4-4.6-7.4-5.3h-35v6.2h10.4
						c2.4,0,4.7,1.2,5.9,3.3l0,0l3,5l41.6,72.7l1.7,3.1l3.1,5.3l0.5,1l25.7,45l0.7,1.2c2.3,3.6,6.3,5.8,10.6,5.9l28.8-0.3v-6h-6.3
						C324.8,143.1,322.2,141.8,320.5,139.5"/>
					<polyline class="st2" points="245.2,143.1 218.7,143.1 219,143.1 204.8,143.1 204.8,149.3 245.2,149.3 					"/>
					<polyline class="st0" points="120.2,101.3 120.2,60 120.2,60.4 120.2,38.2 114,38.2 114,101.3 					"/>
				</g>
			</g>
		</g>
	</g>
</g>
</svg>
