<svg xmlns="http://www.w3.org/2000/svg" viewBox="0 0 309.01 167.37"><defs><style>.cls-1{fill:#1e4042;}.cls-2{fill:#f2a25d;}</style></defs><g id="Layer_2" data-name="Layer 2"><g id="Layer_1-2" data-name="Layer 1"><path class="cls-1" d="M300.55,94q-8.46-10.74-23.8-16.41-4.29-1.58-8.24-2.93c-2.63-.91-5.23-1.77-7.79-2.61s-5.15-1.69-7.78-2.6-5.46-2-8.46-3.16a51.26,51.26,0,0,1-18.73-11.54q-7.22-7.25-7.22-19.23a33.07,33.07,0,0,1,2.6-13.68C228.37,5.78,250.9,7,250.9,7l13.39-.13V0h-2.64V0h-9A74.41,74.41,0,0,0,232,2.83a50.5,50.5,0,0,0-17.37,8.7,43.2,43.2,0,0,0-12,14.71q-4.47,8.82-4.46,21A37.67,37.67,0,0,0,200.66,61a46.88,46.88,0,0,0,6.56,11.76,46.17,46.17,0,0,0,9.5,9.28A49.14,49.14,0,0,0,228,88.22q5.21,2,8.94,3.28T244.2,94c2.34.83,4.87,1.69,7.58,2.6s5.89,2,9.5,3.39a88.06,88.06,0,0,1,10.18,4.53,33.62,33.62,0,0,1,8.26,6,25.91,25.91,0,0,1,5.54,8.26,27.87,27.87,0,0,1,2,11.08q0,15.61-10.41,24.77c-5.43,4.79-15.22,5.66-20.43,5.66h0v6.63h6.16c1.43,0,18.43-2.88,29.77-12a42.73,42.73,0,0,0,12.21-14.7A41.75,41.75,0,0,0,309,120.79Q309,104.74,300.55,94Z"/><path class="cls-1" d="M42.8,73c32.91-11.6,33-64.76-6.11-64.76H6.89V1.4H40.71l12.67,0c28.19,0,37.53,23.3,37.53,36.05,0,31-31.13,42.44-39.14,42.44-3.16,0-6.29,0-8.93,0Z"/><path class="cls-1" d="M42.84,79.92c44.81,2.2,44.33,82.18-5.06,79.93H33l-33,.42v6.88l9.54-.42H44l19.24,0c28.19,0,36.86-28,36.48-49.21C99,79.68,65.35,73,47.93,73H42.84Z"/><polyline class="cls-2" points="173.49 85.35 134.66 85.34 135.1 85.35 114.2 85.34 114.2 92.23 173.49 92.23"/><path class="cls-1" d="M229.43,156.33l0-.05-.94-1.73L145.94,9.49,145,8a13.73,13.73,0,0,0-8.26-5.9L97.86,2V8.92h11.45a7.65,7.65,0,0,1,6.6,3.66l0,0,3.29,5.57L165.35,99l1.9,3.47,3.47,5.95.56,1.15,28.56,50,.76,1.34a14.08,14.08,0,0,0,11.74,6.53l31.93-.36v-6.74h-7A9.55,9.55,0,0,1,229.43,156.33Z"/><polyline class="cls-2" points="145.81 160.28 116.39 160.27 116.72 160.28 100.89 160.27 100.89 167.15 145.81 167.16"/><polyline class="cls-1" points="6.88 113.81 6.89 67.95 6.88 68.47 6.89 43.79 0.01 43.79 0 113.81"/></g></g></svg>