<?xml version="1.0" encoding="utf-8"?>
<!-- Generator: Adobe Illustrator 25.0.1, SVG Export Plug-In . SVG Version: 6.00 Build 0)  -->
<svg version="1.1" id="Layer_1" xmlns="http://www.w3.org/2000/svg" xmlns:xlink="http://www.w3.org/1999/xlink" x="0px" y="0px"
	 viewBox="0 0 89.5 48.5" style="enable-background:new 0 0 89.5 48.5;" xml:space="preserve">
<style type="text/css">
	.st0{fill:#007A9D;}
	.st1{fill-rule:evenodd;clip-rule:evenodd;}
</style>
<g id="Layer_2_1_">
	<g id="Layer_1-2">
		<path class="st0" d="M8.4,19.7V9.8c0-1.7,0.2-2.2,0.7-2.5C10,6.9,11,6.7,12,6.8c4.8,0,6.7,3,6.7,6.4c0,4.2-2.3,6.4-7.9,6.4H8.4
			 M16.4,20.3v-0.1c2.8-0.8,6.8-2.7,6.8-7.5c0.1-2.3-1-4.4-2.8-5.7c-1.6-1.1-3.8-1.7-7.6-1.7H0v1.4C4,7,4.2,7.3,4.2,11.5v19.3h4.2
			v-9.3h2.3c6.1,0,9.6,2.3,9.6,7.4s-3.7,7.3-7.8,7.4c-0.9,0-1.7-0.1-2.6-0.4V38h0.6c4,0,7.3-0.6,9.9-2c3-1.7,4.8-4.2,4.8-7.6
			C25.3,23.3,21.4,21,16.4,20.3L16.4,20.3z"/>
		<path class="st0" d="M46.4,40.5C43,31.1,37,13.8,37,13.8h-5l6.2,17.8h-9.4l-1.1,3h11.5c1.2,3.3,2.3,6.2,3,8.3s0.2,2.5-3.2,3v1.5
			h13.2V46C48.9,45.7,48.2,45.2,46.4,40.5"/>
		<path class="st0" d="M52.7,14.2c-3.9-2.1-6.3-3.8-6.1-7.4c0-2.9,2.3-5.2,5.2-5.2c0.2,0,0.4,0,0.6,0c4.4,0.2,5.6,3.5,6.4,6.7
			l1.5-0.2c-0.3-3.1-0.5-5-0.6-6.7c-2-0.8-4.1-1.2-6.3-1.3c-6.5-0.2-10.5,3.6-10.6,8.3c-0.2,5.5,4.8,8.1,8,9.8
			c3.7,2.1,6.4,3.9,6.3,7.4s-2.4,5.9-6.3,5.9c-0.1,0-0.7,0-0.7,0v1.4c6.5,0.1,11-3.8,11.2-8.8C61.2,18.7,56.5,16.3,52.7,14.2"/>
		<path d="M72.4,42.9c-0.5-0.4-1.2-0.7-1.9-0.7c-1-0.1-1.9,0.7-2,1.7V44c0,1,0.7,1.5,1.6,1.6l0.5,0.1c0.9,0.1,1.3,0.4,1.3,1
			s-0.7,1.1-1.5,1.1c-0.7,0-1.3-0.2-1.8-0.7l-0.4,0.5c0.6,0.5,1.3,0.8,2.1,0.8c1,0.1,2-0.6,2.1-1.6c0-0.1,0-0.1,0-0.2
			c0-1-0.8-1.5-1.7-1.6l-0.4,0c-0.8-0.1-1.2-0.4-1.2-1s0.6-1.1,1.4-1.1c0.6,0,1.2,0.2,1.6,0.6L72.4,42.9"/>
		<path d="M76.3,44.3h-1.6V43h-0.6v1.3h-0.8v0.6h0.8V47c0,1,0.5,1.5,1.3,1.5c0.4,0,0.8-0.1,1.1-0.4l-0.3-0.5
			c-0.2,0.2-0.5,0.3-0.8,0.3c-0.4,0-0.7-0.3-0.7-0.9v-2.1h1.6V44.3"/>
		<path class="st1" d="M79,44.8c0.6,0,1.1,0.5,1.1,1.3h-2.4C77.8,45.3,78.3,44.8,79,44.8 M78.9,44.2c-1.1,0-1.9,0.9-1.8,2v0.1
			c-0.1,1,0.6,2,1.7,2.1c0.1,0,0.1,0,0.2,0c0.6,0,1.1-0.2,1.5-0.6l-0.3-0.4c-0.3,0.3-0.7,0.5-1.2,0.5c-0.7,0-1.3-0.6-1.3-1.3l0,0
			h2.9v-0.2C80.7,45.1,80,44.2,78.9,44.2L78.9,44.2z"/>
		<path class="st1" d="M83.6,44.2c-0.5,0-0.9,0.3-1.1,0.7v-0.6h-0.6v4.1h0.6v-2.3c0-0.8,0.4-1.3,1-1.3c0.2,0,0.4,0.1,0.6,0.2
			l0.1-0.6C84,44.3,83.8,44.2,83.6,44.2"/>
		<path class="st1" d="M87.1,44.2c-0.5,0-1,0.2-1.2,0.7v-0.6h-0.6v4.1h0.6v-2.3c-0.1-0.6,0.4-1.2,1-1.2H87c0.7,0,1.1,0.5,1.1,1.2
			v2.3h0.6v-2.5c0.1-0.8-0.5-1.5-1.3-1.6C87.2,44.2,87.1,44.2,87.1,44.2"/>
		<path class="st1" d="M70.5,34.1l1.1,3h-2.2L70.5,34.1 M70.9,33.4h-0.8l-2.2,6h0.7l0.6-1.7h2.7l0.6,1.7h0.7L70.9,33.4z"/>
		<polyline points="77,35.3 74,35.3 74,35.9 76.3,35.9 73.9,38.9 73.9,39.4 77.1,39.4 77.1,38.8 74.7,38.8 77,35.8 77,35.3 		"/>
		<path class="st1" d="M80,35.2c-0.4,0-0.8,0.3-1,0.7v-0.6h-0.6v4.1H79v-2.3c0-0.8,0.4-1.3,1-1.3c0.2,0,0.4,0.1,0.6,0.2l0.1-0.6
			C80.5,35.3,80.3,35.2,80,35.2"/>
		<path class="st1" d="M82,33.4c-0.3,0-0.4,0.3-0.4,0.5s0.2,0.4,0.4,0.4c0.3,0,0.4-0.3,0.4-0.5C82.3,33.6,82.2,33.4,82,33.4
			 M82.3,39.4v-4.1h-0.6v4.1H82.3z"/>
		<path class="st1" d="M85.3,35.8c0.6,0,1.1,0.5,1.1,1.2h-2.3C84.1,36.4,84.7,35.8,85.3,35.8 M85.3,35.2c-1.1,0.1-1.9,1-1.8,2v0.1
			c-0.1,1,0.6,2,1.7,2.1c0.1,0,0.1,0,0.2,0c0.6,0,1.1-0.2,1.5-0.6l-0.3-0.4c-0.3,0.3-0.7,0.5-1.2,0.5c-0.7,0-1.3-0.6-1.3-1.3l0,0H87
			v-0.2C87,36.1,86.3,35.2,85.3,35.2L85.3,35.2z"/>
		<rect x="88.3" y="33.2" width="0.6" height="6.2"/>
		<path class="st1" d="M70.7,25c0.7,0,1.3,0.2,1.3,1s-0.6,1-1.3,1h-1.5v-2H70.7 M70.7,27.7c0.8,0,1.3,0.2,1.3,1s-0.5,1-1.3,1h-1.5
			v-2.1L70.7,27.7z M68.6,24.4v6h2.2c1.2,0,2-0.5,2-1.7c0-0.6-0.3-1.2-0.9-1.4c0.5-0.2,0.9-0.8,0.8-1.3c0-1.1-0.8-1.6-2-1.6H68.6z"
			/>
		<path class="st1" d="M75.7,26.8c0.8,0,1.4,0.7,1.3,1.5c0,0,0,0,0,0.1c0.1,0.7-0.4,1.4-1.1,1.5s-1.4-0.4-1.5-1.1c0-0.1,0-0.2,0-0.3
			C74.3,27.6,74.8,26.9,75.7,26.8C75.6,26.8,75.6,26.8,75.7,26.8 M77.5,26.3H77v0.6c-0.3-0.4-0.8-0.7-1.3-0.7
			c-1.1,0.1-1.9,1-1.8,2.1c-0.1,1.1,0.7,2,1.8,2.1c0.5,0,1.1-0.2,1.4-0.7v0.6h0.6L77.5,26.3z"/>
		<path class="st1" d="M80.8,26.2c-0.5,0-1,0.2-1.2,0.7v-0.6H79v4.1h0.6v-2.3c-0.1-0.6,0.4-1.2,1-1.3h0.1c0.7,0,1.1,0.5,1.1,1.2v2.3
			h0.6v-2.5c0.1-0.8-0.5-1.6-1.4-1.6C80.9,26.2,80.9,26.2,80.8,26.2"/>
		<path class="st1" d="M85.4,26.8c0.8,0,1.4,0.7,1.3,1.5c0,0,0,0,0,0.1c0.1,0.7-0.4,1.4-1.1,1.5s-1.4-0.4-1.5-1.1c0-0.1,0-0.2,0-0.3
			C84,27.6,84.6,26.9,85.4,26.8L85.4,26.8 M87.3,26.3h-0.6v0.6c-0.3-0.4-0.8-0.7-1.3-0.7c-1.1,0.1-1.9,1-1.8,2.1
			c-0.1,1.1,0.7,2,1.8,2.1c0.5,0,1-0.2,1.3-0.7v0.6h0.6V26.3z"/>
		<path class="st1" d="M89.1,24.4c-0.3,0-0.5,0.2-0.5,0.5s0.2,0.5,0.5,0.5s0.5-0.2,0.5-0.5C89.5,24.6,89.3,24.4,89.1,24.4L89.1,24.4
			 M89.4,30.4v-4.1h-0.6v4.1H89.4z"/>
	</g>
</g>
</svg>
