<?xml version="1.0" encoding="utf-8"?>
<!-- Generator: Adobe Illustrator 25.0.1, SVG Export Plug-In . SVG Version: 6.00 Build 0)  -->
<svg version="1.1" id="Layer_1" xmlns="http://www.w3.org/2000/svg" xmlns:xlink="http://www.w3.org/1999/xlink" x="0px" y="0px"
	 viewBox="0 0 61.1 47.5" style="enable-background:new 0 0 61.1 47.5;" xml:space="preserve">
<style type="text/css">
	.st0{fill:#007A9D;}
</style>
<g id="Layer_2_1_">
	<g id="Layer_1-2">
		<path class="st0" d="M8.4,19.7V9.8c0-1.7,0.2-2.2,0.7-2.5C10,6.9,11,6.8,12,6.8c4.8,0,6.7,3,6.7,6.4c0,4.2-2.3,6.4-7.9,6.4
			L8.4,19.7 M16.4,20.3v-0.1c2.8-0.8,6.8-2.7,6.8-7.5c0.1-2.3-1-4.4-2.8-5.7c-1.6-1.1-3.8-1.7-7.6-1.7H0v1.4c4,0.3,4.2,0.6,4.2,4.8
			v19.3h4.2v-9.3h2.3c6.1,0,9.7,2.3,9.7,7.4s-3.7,7.3-7.8,7.4c-0.9,0-1.7-0.1-2.6-0.4v2.1h0.6c4,0,7.3-0.6,9.9-2
			c3-1.7,4.8-4.2,4.8-7.6C25.4,23.2,21.5,21,16.4,20.3L16.4,20.3z"/>
		<path class="st0" d="M46.5,40.5C43,31.1,37,13.8,37,13.8h-4.9l6.2,17.8h-9.4l-1.1,3h11.5c1.2,3.3,2.3,6.2,3,8.3s0.2,2.5-3.2,3v1.5
			h13.2V46C48.9,45.6,48.2,45.2,46.5,40.5"/>
		<path class="st0" d="M52.7,14.2c-3.9-2.1-6.3-3.8-6.1-7.4c0-2.9,2.3-5.2,5.2-5.2c0.2,0,0.4,0,0.6,0c4.4,0.2,5.6,3.5,6.4,6.7
			l1.5-0.2c-0.3-3.1-0.5-5-0.6-6.7c-2-0.7-4.1-1.2-6.3-1.3c-6.5-0.2-10.5,3.6-10.6,8.3c-0.2,5.5,4.8,8.1,8,9.8
			c3.7,2.1,6.4,3.9,6.3,7.4s-2.4,5.9-6.3,5.9c-0.1,0-0.7,0-0.7,0v1.4c6.5,0.1,11-3.8,11.2-8.8C61.3,18.7,56.6,16.2,52.7,14.2"/>
	</g>
</g>
</svg>
